<svg xmlns="http://www.w3.org/2000/svg" xmlns:xlink="http://www.w3.org/1999/xlink" width="121" height="121" viewBox="0 0 121 121">
    <defs>
        <rect id="b" width="78" height="24" x="22" y="48" rx="2"/>
        <filter id="a" width="129.5%" height="195.8%" x="-14.7%" y="-39.6%" filterUnits="objectBoundingBox">
            <feOffset dy="2" in="SourceAlpha" result="shadowOffsetOuter1"/>
            <feGaussianBlur in="shadowOffsetOuter1" result="shadowBlurOuter1" stdDeviation="3.5"/>
            <feColorMatrix in="shadowBlurOuter1" values="0 0 0 0 0 0 0 0 0 0 0 0 0 0 0 0 0 0 0.393738678 0"/>
        </filter>
    </defs>
    <g fill="none" fill-rule="evenodd" transform="translate(-608 -179)">
        <path fill="#EDEDED" d="M0 0h1440v654H0z"/>
        <rect width="208" height="388" x="564" y="154" fill="#FFF" rx="4"/>
        <g transform="translate(608 179)">
            <circle cx="60.5" cy="60.5" r="60.5" fill="#F6F6F6"/>
            <rect width="56" height="93" x="32" y="26" fill="#585858" rx="4"/>
            <rect width="50" height="78" x="35" y="30" fill="#FFF" rx="4"/>
            <use fill="#000" filter="url(#a)" xlink:href="#b"/>
            <use fill="#FF7626" xlink:href="#b"/>
            <path fill="#D8D8D8" d="M44 81h35v2H44zM44 87h35v2H44zM44 94h24v2H44z"/>
            <text fill="#FFF" font-family="NotoSansCJKkr-Bold, Noto Sans CJK KR" font-size="10" font-weight="bold">
                <tspan x="42" y="64">지원하기</tspan>
            </text>
            <circle cx="33" cy="72" r="10" fill="#FFC292"/>
            <path fill="#FFC292" d="M24.26 67L9 91.214a47.717 47.717 0 0 0 5.213 7.923c2.01 2.484 4.474 5.03 7.39 7.64l19.314-28.963L24.26 67z"/>
            <path fill="#FFD8B9" d="M30.148 64.064C31.183 61.666 33.463 60 36.108 60c3.62 0 6.555 3.118 6.555 6.963a7.22 7.22 0 0 1-1.329 4.204l-5.31 8.612c-2.64.409-5.002-.205-7.087-1.84-2.085-1.637-3.397-3.43-3.937-5.383l5.148-8.492z"/>
        </g>
        <text fill="#4F4F4F" font-family="NotoSansCJKkr-Bold, Noto Sans CJK KR" font-size="24" font-weight="bold">
            <tspan x="615.432" y="208">3</tspan>
        </text>
    </g>
</svg>
