<svg xmlns="http://www.w3.org/2000/svg" xmlns:xlink="http://www.w3.org/1999/xlink" width="121" height="121" viewBox="0 0 121 121">
    <defs>
        <path id="b" d="M34 26h52v75H34z"/>
        <filter id="a" width="144.2%" height="130.7%" x="-22.1%" y="-12.7%" filterUnits="objectBoundingBox">
            <feOffset dy="2" in="SourceAlpha" result="shadowOffsetOuter1"/>
            <feGaussianBlur in="shadowOffsetOuter1" result="shadowBlurOuter1" stdDeviation="3.5"/>
            <feColorMatrix in="shadowBlurOuter1" values="0 0 0 0 0 0 0 0 0 0 0 0 0 0 0 0 0 0 0.393738678 0"/>
        </filter>
    </defs>
    <g fill="none" fill-rule="evenodd" transform="translate(-390 -179)">
        <path fill="#EDEDED" d="M0 0h1440v654H0z"/>
        <rect width="208" height="388" x="346" y="154" fill="#FFF" rx="4"/>
        <g transform="translate(390 179)">
            <circle cx="60.5" cy="60.5" r="60.5" fill="#F6F6F6"/>
            <path fill="#FFC292" d="M76.609 118c-21.89-7.426-34.514-17.554-37.87-30.385-3.357-12.832 4.726-19.03 24.25-18.594l21.775 9.567L94 104.41 76.609 118z"/>
            <path fill="#FFC292" d="M29.886 67.396l21.552 25.078a4.5 4.5 0 0 1-.461 6.33l-.02.016a4.475 4.475 0 0 1-6.328-.46L23.077 73.28a4.5 4.5 0 0 1 .46-6.329l.02-.016a4.475 4.475 0 0 1 6.329.46zM33.886 56.396l21.552 25.078a4.5 4.5 0 0 1-.461 6.33l-.02.016a4.475 4.475 0 0 1-6.328-.46L27.077 62.28a4.5 4.5 0 0 1 .46-6.329l.02-.016a4.475 4.475 0 0 1 6.329.46zM37.886 45.396l21.552 25.078a4.5 4.5 0 0 1-.461 6.33l-.02.016a4.475 4.475 0 0 1-6.328-.46L31.077 51.28a4.5 4.5 0 0 1 .46-6.329l.02-.016a4.475 4.475 0 0 1 6.329.46zM77 117.923c5.523.393 10.218-.388 14.086-2.344 3.868-1.955 7.389-4.892 10.563-8.81L91.514 101l-13.867 10.865-.647 6.058z"/>
            <use fill="#000" filter="url(#a)" xlink:href="#b"/>
            <use fill="#FFF" xlink:href="#b"/>
            <path fill="#D8D8D8" d="M43 38h35v2H43zM43 45h28v2H43zM43 52h35v2H43zM43 59h30v2H43zM43 66h20v2H43z"/>
            <path fill="#4C4C4C" d="M44.5 80l4.33 2.5-4.5 7.794-1.235-2.86-3.095.36z"/>
            <path fill="#4C4C4C" d="M52.33 80L48 82.5l4.5 7.794 1.235-2.86 3.095.36z"/>
            <path fill="#FFC292" d="M83.088 59.962a5.199 5.199 0 0 1-.362-5.33 5.196 5.196 0 0 1 6.987-2.274 5.171 5.171 0 0 1 2.515 2.834c6.98 11.416 10.973 19.078 11.981 22.988 1.011 3.92.344 13.406-2.003 28.456l-23.668 2.044c-.082-11.035 1.726-19.526 5.422-25.473 3.657-5.884 3.366-13.633-.872-23.245z"/>
            <circle cx="48.5" cy="78.5" r="6.5" fill="#F57A33"/>
        </g>
        <text fill="#4F4F4F" font-family="NotoSansCJKkr-Bold, Noto Sans CJK KR" font-size="24" font-weight="bold">
            <tspan x="397.432" y="208">2</tspan>
        </text>
    </g>
</svg>
