<svg xmlns="http://www.w3.org/2000/svg" xmlns:xlink="http://www.w3.org/1999/xlink" width="121" height="121" viewBox="0 0 121 121">
    <defs>
        <path id="b" d="M37.864 84l-9.887 10.433-.9-10.433H16a2 2 0 0 1-2-2V43a2 2 0 0 1 2-2h88a2 2 0 0 1 2 2v39a2 2 0 0 1-2 2H37.864z"/>
        <filter id="a" width="125%" height="143%" x="-12.5%" y="-17.8%" filterUnits="objectBoundingBox">
            <feOffset dy="2" in="SourceAlpha" result="shadowOffsetOuter1"/>
            <feGaussianBlur in="shadowOffsetOuter1" result="shadowBlurOuter1" stdDeviation="3.5"/>
            <feColorMatrix in="shadowBlurOuter1" values="0 0 0 0 0 0 0 0 0 0 0 0 0 0 0 0 0 0 0.393738678 0"/>
        </filter>
    </defs>
    <g fill="none" fill-rule="evenodd" transform="translate(-1044 -179)">
        <path fill="#EDEDED" d="M0 0h1440v654H0z"/>
        <rect width="208" height="388" x="1000" y="154" fill="#FFF" rx="4"/>
        <g transform="translate(1044 179)">
            <circle cx="60.5" cy="60.5" r="60.5" fill="#F6F6F6"/>
            <path fill="#D8D8D8" d="M58.403 14l1.224 2.341c-2.305 1.26-3.493 2.773-3.53 5.115.145-.036.253-.036.397-.036 1.548 0 2.881 1.044 2.881 2.773 0 1.873-1.225 3.025-2.881 3.025-2.305 0-3.494-1.8-3.494-4.862 0-3.71 1.8-6.483 5.403-8.356zm9.004 0l1.225 2.341c-2.306 1.26-3.494 2.773-3.53 5.115.144-.036.252-.036.396-.036 1.549 0 2.881 1.044 2.881 2.773 0 1.873-1.224 3.025-2.88 3.025-2.306 0-3.495-1.8-3.495-4.862 0-3.71 1.801-6.483 5.403-8.356zM66.229 107.218l-1.225-2.34c2.305-1.261 3.494-2.774 3.53-5.115a1.477 1.477 0 0 1-.396.036c-1.549 0-2.882-1.045-2.882-2.774 0-1.872 1.225-3.025 2.882-3.025 2.305 0 3.494 1.8 3.494 4.862 0 3.71-1.801 6.484-5.403 8.356zm-9.004 0L56 104.878c2.305-1.261 3.494-2.774 3.53-5.115a1.477 1.477 0 0 1-.396.036c-1.55 0-2.882-1.045-2.882-2.774 0-1.872 1.225-3.025 2.882-3.025 2.305 0 3.493 1.8 3.493 4.862 0 3.71-1.8 6.484-5.402 8.356z"/>
            <use fill="#000" filter="url(#a)" xlink:href="#b"/>
            <use fill="#FFF" xlink:href="#b"/>
            <g fill="#FF7626">
                <path d="M34 68.554l-6.18 2.52.48-6.673-4.3-5.115 6.477-1.605L34 52l3.523 5.681L44 59.286 39.7 64.4l.48 6.673zM60 68.554l-6.18 2.52.48-6.673-4.3-5.115 6.477-1.605L60 52l3.523 5.681L70 59.286 65.7 64.4l.48 6.673zM86 68.554l-6.18 2.52.48-6.673-4.3-5.115 6.477-1.605L86 52l3.523 5.681L96 59.286 91.7 64.4l.48 6.673z"/>
            </g>
        </g>
        <text fill="#4F4F4F" font-family="NotoSansCJKkr-Bold, Noto Sans CJK KR" font-size="24" font-weight="bold">
            <tspan x="1050.432" y="207">5</tspan>
        </text>
    </g>
</svg>
