<?xml version="1.0" encoding="utf-8"?>
<!-- Generator: Adobe Illustrator 16.0.0, SVG Export Plug-In . SVG Version: 6.00 Build 0)  -->
<!DOCTYPE svg PUBLIC "-//W3C//DTD SVG 1.1//EN" "http://www.w3.org/Graphics/SVG/1.1/DTD/svg11.dtd">
<svg version="1.1" id="logo" xmlns="http://www.w3.org/2000/svg" xmlns:xlink="http://www.w3.org/1999/xlink" x="0px" y="0px"
	 width="164px" height="46px" viewBox="0 0 164 46" enable-background="new 0 0 164 46" xml:space="preserve">
<path fill="#1C1C1B" d="M82.136,45.883v-4.65h1.537c0.59,0,1.068,0.185,1.438,0.553c0.369,0.368,0.554,0.841,0.554,1.422v0.706
	c0,0.581-0.185,1.054-0.554,1.421c-0.37,0.366-0.849,0.549-1.438,0.549H82.136z M82.911,41.855v3.407h0.762
	c0.372,0,0.669-0.126,0.887-0.379c0.22-0.252,0.33-0.576,0.33-0.971V43.2c0-0.393-0.11-0.714-0.33-0.967
	c-0.218-0.252-0.515-0.378-0.887-0.378H82.911z M90.116,44.796h-1.649l-0.356,1.087h-0.803l1.622-4.65h0.738l1.604,4.65H90.47
	L90.116,44.796z M88.681,44.149h1.225l-0.599-1.834h-0.019L88.681,44.149z M96.722,41.232h-0.775v3.344l-0.02,0.006l-2.06-3.35
	H93.09v4.651h0.777v-3.346l0.019-0.007l2.061,3.353h0.775V41.232z M101.617,45.884h0.979l-1.888-2.45l1.745-2.186l-0.01-0.017h-0.91
	l-1.511,1.972h-0.305v-1.972h-0.775v4.652h0.775v-2.013h0.38L101.617,45.884z M107.026,45.884h0.979l-1.888-2.45l1.745-2.186
	l-0.01-0.017h-0.91l-1.511,1.972h-0.305v-1.972h-0.775v4.652h0.775v-2.013h0.38L107.026,45.884z M112.536,41.232v3.063
	c0,0.331-0.097,0.585-0.287,0.765c-0.193,0.182-0.446,0.271-0.761,0.271c-0.306,0-0.55-0.09-0.735-0.271
	c-0.186-0.18-0.278-0.434-0.278-0.765v-3.063h-0.775v3.063c0,0.519,0.166,0.923,0.499,1.216c0.332,0.292,0.762,0.439,1.29,0.439
	c0.536,0,0.975-0.147,1.313-0.439c0.34-0.293,0.51-0.697,0.51-1.216v-3.063H112.536z M116.48,41.232h-1.019v4.65h0.776v-3.401
	l0.019-0.007l1.304,3.408h0.533l1.281-3.344l0.019,0.002v3.342h0.776v-4.65h-0.99l-1.344,3.578h-0.021L116.48,41.232z
	 M126.041,41.232h-0.775v4.65h0.775V41.232z"/>
<path fill="#25B7BC" d="M131.102,10.208h3.148v4.721h-3.148c-1.014,0-2.101,0.886-2.101,1.51V30.44c0,1.303-1.056,2.36-2.36,2.36
	c-1.304,0-2.359-1.058-2.359-2.36V16.439C124.281,12.768,127.875,10.208,131.102,10.208z M123.059,21.511
	c0,6.232-5.072,11.303-11.304,11.303s-11.303-5.071-11.303-11.303s5.071-11.303,11.303-11.303S123.059,15.279,123.059,21.511z
	 M118.337,21.511c0-3.629-2.953-6.582-6.582-6.582c-3.63,0-6.582,2.953-6.582,6.582c0,3.629,2.952,6.583,6.582,6.583
	C115.384,28.094,118.337,25.141,118.337,21.511z M158.057,21.511c0,6.232-5.071,11.303-11.304,11.303
	c-6.231,0-11.303-5.071-11.303-11.303s5.071-11.303,11.303-11.303C152.985,10.208,158.057,15.279,158.057,21.511z M153.335,21.511
	c0-3.629-2.952-6.582-6.582-6.582c-3.629,0-6.582,2.953-6.582,6.582c0,3.629,2.953,6.583,6.582,6.583
	C150.383,28.094,153.335,25.141,153.335,21.511z M159.28,10.253v20.245c0,1.303,1.056,2.36,2.359,2.36c1.305,0,2.36-1.058,2.36-2.36
	V10.253H159.28z"/>
<path fill="#F07E23" d="M85.556,20.1v-5.158h14.29v-1.605c0-1.715-1.39-3.105-3.104-3.105h-1.983V8.13
	c0-4.442-3.615-8.08-8.058-8.08h-4.029v4.733H86.7c1.831,0,3.32,1.516,3.32,3.347v2.102h-9.254V8.08c0-4.443-3.614-8.03-8.056-8.03
	h-4.03v4.733h4.03c1.831,0,3.321,1.466,3.321,3.297v2.152h-7.918h-0.4h-2.758c-3.237,0-6.843,2.568-6.843,6.251v5.759h-2.947H44.398
	c-1.834,0-3.321-1.487-3.321-3.321v-0.632c0-1.834,1.487-3.347,3.321-3.347h10.175v-1.605c0-1.715-1.39-3.105-3.105-3.105h-7.07
	c-4.449,0-8.056,3.607-8.056,8.057v0.632c0,4.449,3.607,8.056,8.056,8.056h10.767h7.683V16.483c0-0.626,1.089-1.541,2.107-1.541
	h2.758h0.4h12.706v5.12h-0.766h-1.776h-6.551v12.764h21.146v-4.707C92.872,23.927,89.651,20.475,85.556,20.1 M80.054,28.117h-1.776
	h-1.815v-3.318h1.815h1.776h4.762c1.83,0,3.32,1.488,3.321,3.318H80.054z M64.364,36.459c1.714,0,3.104,1.39,3.104,3.104v1.632
	h-9.28c-4.449,0-8.056-3.606-8.056-8.056V30.01h4.735v3.129c0,1.834,1.487,3.32,3.321,3.32H64.364"/>
<path fill="#E7304D" d="M3.339,26.308c-1.81-0.06-3.279-1.521-3.324-3.354c-0.047-1.899,1.455-3.476,3.354-3.522l1.751-0.042
	c1.897-0.046,3.476,1.455,3.522,3.354c0.047,1.899-1.455,3.475-3.354,3.522l-1.751,0.042C3.47,26.31,3.404,26.31,3.339,26.308"/>
<path fill="#E7304D" d="M6.477,36.949c-0.543-0.019-1.086-0.2-1.549-0.56c-1.168-0.905-1.382-2.585-0.477-3.753l3.777-4.875
	c0.905-1.167,2.585-1.38,3.753-0.476s1.381,2.585,0.476,3.753L8.68,35.914C8.134,36.619,7.305,36.976,6.477,36.949"/>
<path fill="#FBBA23" d="M18.001,35.529c-1.044-0.034-1.984-0.751-2.254-1.814l-0.742-2.918c-0.327-1.289,0.452-2.599,1.741-2.927
	c1.289-0.327,2.598,0.452,2.926,1.741l0.741,2.918c0.328,1.289-0.452,2.599-1.74,2.926C18.448,35.512,18.222,35.536,18.001,35.529"
	/>
<path fill="#F07E23" d="M26.921,30.686c-0.365-0.013-0.733-0.095-1.086-0.254l-3.758-1.697c-1.443-0.652-2.083-2.351-1.432-3.792
	c0.652-1.442,2.35-2.084,3.792-1.431l3.757,1.697c1.443,0.652,2.084,2.349,1.433,3.791C29.134,30.089,28.046,30.721,26.921,30.686"
	/>
<path fill="#F07E23" d="M23.935,21.249c-1.076-0.035-2.1-0.637-2.625-1.663c-0.77-1.503-0.175-3.345,1.328-4.114l5.909-3.026
	c1.502-0.77,3.345-0.175,4.114,1.328c0.77,1.502,0.175,3.345-1.328,4.114l-5.909,3.026C24.947,21.158,24.435,21.265,23.935,21.249"
	/>
<path fill="#25B7BC" d="M17.512,15.401c-0.198-0.006-0.397-0.029-0.598-0.07c-1.945-0.392-3.204-2.286-2.812-4.231l0.786-3.9
	c0.393-1.945,2.287-3.203,4.231-2.812c1.945,0.392,3.204,2.286,2.812,4.231l-0.786,3.901C20.793,14.264,19.233,15.458,17.512,15.401
	"/>
<path fill="#FBBA23" d="M7.661,17.891c-1.216-0.039-2.412-0.577-3.255-1.583l-3.37-4.019c-1.572-1.876-1.327-4.672,0.549-6.245
	c1.877-1.572,4.672-1.327,6.245,0.55l3.37,4.019c1.573,1.876,1.327,4.672-0.549,6.244C9.78,17.587,8.712,17.925,7.661,17.891"/>
</svg>
